<?xml version="1.0" standalone="no"?><!DOCTYPE svg PUBLIC "-//W3C//DTD SVG 1.1//EN" "http://www.w3.org/Graphics/SVG/1.1/DTD/svg11.dtd"><svg t="1664021288030" class="icon" viewBox="0 0 1024 1024" version="1.1" xmlns="http://www.w3.org/2000/svg" p-id="1371" xmlns:xlink="http://www.w3.org/1999/xlink" width="200" height="200"><path d="M812.97408 382.976h-32.36864V313.3696a272.256 272.256 0 1 0-544.512 0V382.976h-25.0624A113.91488 113.91488 0 0 0 97.28 496.77312v367.32928A113.91488 113.91488 0 0 0 211.03104 977.92h601.94304A113.90976 113.90976 0 0 0 926.72 864.1024V496.77312A113.90976 113.90976 0 0 0 812.97408 382.976zM305.7152 313.3696a202.63424 202.63424 0 1 1 405.26848 0V382.976H305.7152V313.3696zM857.088 864.1024a44.1856 44.1856 0 0 1-44.12416 44.15488H211.03104a44.19584 44.19584 0 0 1-44.11904-44.15488V496.77312a44.19584 44.19584 0 0 1 44.11904-44.16512h601.94304a44.1856 44.1856 0 0 1 44.12416 44.16v367.3344z m-331.71456-309.9648a62.69952 62.69952 0 0 0-34.816 114.82112v103.45984a34.816 34.816 0 1 0 69.632 0v-103.45984a62.69952 62.69952 0 0 0-34.80576-114.82112z" fill="#8a8a8a" p-id="1372"></path></svg>